<?xml version="1.0" encoding="utf-8"?>
<!-- Generator: Adobe Illustrator 16.0.3, SVG Export Plug-In . SVG Version: 6.00 Build 0)  -->
<!DOCTYPE svg PUBLIC "-//W3C//DTD SVG 1.1//EN" "http://www.w3.org/Graphics/SVG/1.1/DTD/svg11.dtd">
<svg version="1.1" id="Layer_1" xmlns="http://www.w3.org/2000/svg" xmlns:xlink="http://www.w3.org/1999/xlink" x="0px" y="0px"
	 width="45px" height="45px" viewBox="0 0 45 45" enable-background="new 0 0 45 45" xml:space="preserve">
<path fill="#231F20" d="M44.228,40.468L31.733,27.88c2.057-2.892,3.281-6.421,3.281-10.242C35.015,7.913,27.16,0,17.507,0
	C7.854,0,0,7.913,0,17.638c0,9.726,7.854,17.639,17.507,17.639c3.963,0,7.609-1.349,10.546-3.594l12.447,12.54
	c1.03,1.037,2.698,1.037,3.729,0C45.257,43.187,45.257,41.505,44.228,40.468z M25.251,28.859c-2.199,1.544-4.865,2.458-7.744,2.458
	c-7.486,0-13.577-6.136-13.577-13.68c0-7.542,6.091-13.678,13.577-13.678c7.486,0,13.577,6.136,13.577,13.678
	c0,2.727-0.804,5.263-2.174,7.398C27.947,26.538,26.704,27.837,25.251,28.859z"/>
</svg>
