<?xml version="1.0" encoding="utf-8"?>
<!-- Generator: Adobe Illustrator 16.0.3, SVG Export Plug-In . SVG Version: 6.00 Build 0)  -->
<!DOCTYPE svg PUBLIC "-//W3C//DTD SVG 1.1//EN" "http://www.w3.org/Graphics/SVG/1.1/DTD/svg11.dtd">
<svg version="1.1" id="Layer_1" xmlns="http://www.w3.org/2000/svg" xmlns:xlink="http://www.w3.org/1999/xlink" x="0px" y="0px"
	 width="45px" height="45px" viewBox="0 0 45 45" enable-background="new 0 0 45 45" xml:space="preserve">
<path fill="#231F20" d="M44.057,44.058c-1.256,1.257-3.293,1.257-4.549,0L0.943,5.494c-1.257-1.257-1.257-3.296,0-4.551l0,0
	c1.256-1.256,3.294-1.256,4.551,0l38.563,38.563C45.314,40.764,45.314,42.802,44.057,44.058L44.057,44.058z"/>
<path fill="#231F20" d="M0.943,44.058c-1.257-1.256-1.257-3.294,0-4.552L39.504,0.943c1.258-1.257,3.297-1.257,4.553-0.001l0,0
	c1.258,1.256,1.258,3.295,0,4.552L5.493,44.057C4.237,45.315,2.198,45.315,0.943,44.058L0.943,44.058z"/>
</svg>
